<svg xmlns="http://www.w3.org/2000/svg" viewBox="0 0 522.9 197.68"><defs><style>.cls-1{opacity:0.1;}.cls-2{fill:#f2f2f2;}</style></defs><g id="Layer_2" data-name="Layer 2"><g id="Layer_2-2" data-name="Layer 2"><g class="cls-1"><path class="cls-2" d="M6.44,159.59l-2.87-.14L0,155.17l5.59-3.8,2.87.15-5.61,3.8Z"/><path class="cls-2" d="M12.58,152.38l2.27.11-2.41,9.82-2.27-.11Zm.34-2.61a1.75,1.75,0,0,1,1.78-1.23,1.09,1.09,0,0,1,1.11,1.37,1.73,1.73,0,0,1-1.75,1.23A1.11,1.11,0,0,1,12.92,149.77Z"/><path class="cls-2" d="M32.4,157.64c.42-1.8-.44-2.78-2.1-2.85a3.18,3.18,0,0,0-3.43,2.61l-1.33,5.5-2.26-.1,1.34-5.49c.42-1.81-.44-2.78-2.09-2.85a3.17,3.17,0,0,0-3.43,2.61v0l-1.34,5.54-2.27-.09,2.36-9.83,2.27.09-.27,1.15a5.27,5.27,0,0,1,3.57-1.17c1.74.08,3,.8,3.5,2.12a5.37,5.37,0,0,1,4.28-1.78c2.57.11,4.18,1.64,3.52,4.38l-1.41,5.8-2.25-.1Z"/><path class="cls-2" d="M43,153.51a3.9,3.9,0,0,1,3.43,1.73l.33-1.43,2.29.08-2.32,10c-.63,2.67-3,4.62-6.47,4.5-2.93-.11-4.8-1.5-4.56-3.68l2.25.08c.1,1,1.16,1.77,2.73,1.83a3.53,3.53,0,0,0,3.76-2.82l.38-1.64a6,6,0,0,1-4.19,1.5,4.05,4.05,0,0,1-4-5.32A6.3,6.3,0,0,1,43,153.51Zm.07,1.78A4.08,4.08,0,0,0,39,158.44a2.64,2.64,0,0,0,2.55,3.48,4.1,4.1,0,0,0,4.11-3.2A2.59,2.59,0,0,0,43.07,155.29Z"/><path class="cls-2" d="M62.75,154.15c2.7.08,4.18,1.33,4.34,3.42l-2.46-.07c-.17-1-.91-1.59-2.27-1.63a3.77,3.77,0,0,0-3.8,3.28c-.48,2.16.46,3.41,2.29,3.46a3.14,3.14,0,0,0,3-1.48l2.45.08a6.16,6.16,0,0,1-5.8,3.12c-3.15-.09-4.94-2.16-4.24-5.25A6.31,6.31,0,0,1,62.75,154.15Z"/><path class="cls-2" d="M70.82,151.12l2.27.06-2.94,13.25-2.27-.06Z"/><path class="cls-2" d="M79.79,154.56a4,4,0,0,1,3.46,1.67l.31-1.43,2.29,0-2.13,9.87-2.29,0,.33-1.47a6,6,0,0,1-4.21,1.55,4,4,0,0,1-4-5.24A6.31,6.31,0,0,1,79.79,154.56Zm.1,1.79a4.07,4.07,0,0,0-4,3.21A2.64,2.64,0,0,0,78.45,163a4.12,4.12,0,0,0,4-3.27A2.58,2.58,0,0,0,79.89,156.35Z"/><path class="cls-2" d="M90.8,165c-2.48,0-4.34-1.37-4-3.26l2.21,0c-.11.9.62,1.59,2,1.61s2.2-.33,2.21-1.18c0-1.76-5.45-1.37-5.41-4.57,0-1.75,1.81-2.89,4.38-2.86s4.22,1.33,3.94,3.24l-2.16,0c.11-.94-.62-1.57-1.94-1.59-1.13,0-1.92.44-1.93,1.18,0,1.87,5.39,1.51,5.35,4.59C95.38,164,93.41,165,90.8,165Z"/><path class="cls-2" d="M101.5,165.1c-2.48,0-4.34-1.34-4-3.23h2.21c-.1.9.63,1.59,2,1.6s2.2-.35,2.2-1.2c0-1.76-5.46-1.33-5.44-4.53,0-1.75,1.79-2.91,4.37-2.89s4.22,1.3,4,3.21h-2.16c.11-.94-.63-1.57-1.94-1.58-1.14,0-1.92.46-1.93,1.19,0,1.88,5.4,1.48,5.39,4.56C106.08,164,104.11,165.11,101.5,165.1Z"/><path class="cls-2" d="M110.1,159.61l10.62-.05-.35,1.82-10.62.05Zm.78-4.09,10.62-.05-.35,1.82-10.62.05Z"/><path class="cls-2" d="M147.32,156l1.78-4.4,2.47-.16-2.65,4.46Zm3.59-.23,1.77-4.41,2.47-.16-2.65,4.47Z"/><path class="cls-2" d="M161.32,153a3.91,3.91,0,0,1,3.64,1.23l.13-1.46,2.29-.24-.9,10.06-2.28.24.15-1.5a6,6,0,0,1-4,2.06,4,4,0,0,1-4.67-4.7A6.3,6.3,0,0,1,161.32,153Zm.33,1.75a4.09,4.09,0,0,0-3.63,3.69,2.63,2.63,0,0,0,3,3.09,4.12,4.12,0,0,0,3.63-3.74A2.6,2.6,0,0,0,161.65,154.77Z"/><path class="cls-2" d="M176.32,151c2.88-.46,5,1.25,4.91,4.36a6.37,6.37,0,0,1-5.29,6.06,4,4,0,0,1-3.74-1l0,1.46-2.25.36.51-13.57,2.25-.35-.19,5A6,6,0,0,1,176.32,151Zm-.55,1.89a4.12,4.12,0,0,0-3.43,3.9,2.61,2.61,0,0,0,3.16,2.9,4.17,4.17,0,0,0,3.44-4A2.56,2.56,0,0,0,175.77,152.9Z"/><path class="cls-2" d="M188.08,159.32c-2.76.53-4.92-.78-5.39-3.22-.64-3.3,1.64-6.48,5.4-7.21,2.76-.53,5,.76,5.47,3.22C194.21,155.45,191.81,158.6,188.08,159.32Zm-.05-1.75a4.18,4.18,0,0,0,3.25-4.89,2.51,2.51,0,0,0-3.18-2,4.06,4.06,0,0,0-3.11,4.92A2.39,2.39,0,0,0,188,157.57Z"/><path class="cls-2" d="M206,155.15l-2.21.55-.07-1.19a5.16,5.16,0,0,1-3.07,2.12c-2.49.63-4.47-.38-4.62-3.2l-.31-5.93,2.18-.55.3,5.62c.11,1.85,1.21,2.54,2.82,2.14a3.18,3.18,0,0,0,2.55-3.35l-.3-5.75,2.21-.55Z"/><path class="cls-2" d="M208.73,145.74l-1.23.38-.2-1.69,1.26-.39-.27-2.5,2.19-.68.27,2.5,2.54-.79.19,1.69-2.55.8.6,5.56c.08.75.42,1,1.33.68l1.34-.42.18,1.74-1.71.53c-1.87.58-3.1.19-3.34-1.85Z"/><path class="cls-2" d="M215.88,144.36l7.68-2.88.29,1.74-7.68,2.88Z"/><path class="cls-2" d="M230,135.77a3.92,3.92,0,0,1,3.84.09l-.31-1.44,2.11-.9,2.14,9.87-2.1.9-.31-1.47a6,6,0,0,1-3.18,3.15,4,4,0,0,1-5.86-3.1A6.29,6.29,0,0,1,230,135.77Zm.83,1.58a4.08,4.08,0,0,0-2.36,4.6,2.64,2.64,0,0,0,3.8,2.05,4.12,4.12,0,0,0,2.34-4.65A2.59,2.59,0,0,0,230.78,137.35Z"/><path class="cls-2" d="M240.72,142.05l-2.53-9.78,2.05-1,.45,1.73a4.45,4.45,0,0,1,2.48-3.31l.54,2.09-.52.25a2.91,2.91,0,0,0-1.77,3.8l1.35,5.23Z"/><path class="cls-2" d="M248,138.52,245,128.89l2-1.09.54,1.69a4.47,4.47,0,0,1,2.31-3.44l.65,2.07-.51.28a2.9,2.9,0,0,0-1.56,3.89l1.63,5.14Z"/><path class="cls-2" d="M259.62,131.86c-2.31,1.61-4.82,1.29-6.24-.75-1.92-2.76-1.14-6.59,2-8.78,2.31-1.61,4.88-1.34,6.31.71C263.64,125.83,262.73,129.69,259.62,131.86Zm-.76-1.58a4.17,4.17,0,0,0,1-5.79,2.5,2.5,0,0,0-3.72-.56,4.08,4.08,0,0,0-.85,5.76A2.4,2.4,0,0,0,258.86,130.28Z"/><path class="cls-2" d="M260.61,119l1.57-1.7,6.38,4.85-3.24-8.25,1.61-1.74,6.31,4.87L270,108.81l1.52-1.64,3.66,10.65-1.62,1.76-5.9-4.41,2.89,7.67-1.62,1.76Z"/><path class="cls-2" d="M276.12,101.27l-.56,1.17-1.37-1,.57-1.19-2-1.49,1-2.07,2,1.49,1.14-2.39,1.37,1-1.15,2.41,4.49,3.34c.6.45,1,.35,1.4-.52l.61-1.26,1.39,1-.77,1.62c-.85,1.76-2,2.4-3.62,1.18Z"/><path class="cls-2" d="M288,94.24c-.88,3-3.37,4.34-6.18,2.87a6.33,6.33,0,0,1-3.09-7.65c.88-3,3.27-4.22,5.88-2.88a6.29,6.29,0,0,1,.85.54l-2.35,8.06c1.55.68,2.85-.12,3.33-1.75a3.33,3.33,0,0,0-.54-3.13l.69-2.35A6.31,6.31,0,0,1,288,94.24Zm-6.22.24,1.71-5.86c-1.49-.72-2.75.12-3.23,1.74A3.65,3.65,0,0,0,281.75,94.48Z"/><path class="cls-2" d="M287.11,81.17l3,3.24-.26,2.36-4.36-5-5.29,2,.28-2.56,3.53-1.34-3-3.24.26-2.36,4.36,5,5.29-2-.28,2.55Z"/><path class="cls-2" d="M282.73,72.7l0,1.29-1.68-.28,0-1.31L278.58,72l-.05-2.29,2.47.42-.06-2.66,1.68.29.06,2.67,5.51,1c.74.12,1-.14,1-1.1l0-1.4,1.72.3,0,1.8c0,2-.67,3-2.7,2.69Z"/><path class="cls-2" d="M289.1,55.36c.59,2.41-.24,4.54-2.15,4.7l-.53-2.15c.9-.12,1.39-1,1.07-2.3s-.87-2-1.69-1.84c-1.72.42,0,5.62-3.07,6.38-1.7.42-3.26-1-3.87-3.53s.23-4.41,2.15-4.61l.51,2.09c-.93.13-1.37,1-1,2.27.27,1.11.91,1.75,1.62,1.57,1.82-.44.12-5.59,3.11-6.32C286.94,51.19,288.48,52.83,289.1,55.36Z"/><path class="cls-2" d="M277.78,51l-1-2.1,6.89-4.07-8.86-.12-1-2.15,6.89-4-8.81-.08-.95-2,11.25.63,1,2.17-6.31,3.8,8.19.21,1,2.17Z"/><path class="cls-2" d="M267.38,36.75a1.75,1.75,0,0,1-2-.73,1.09,1.09,0,0,1,.47-1.7,1.74,1.74,0,0,1,2,.71A1.1,1.1,0,0,1,267.38,36.75Zm2.32-1.24-1.23-1.91,9.38-3.76,1.24,1.91Z"/><path class="cls-2" d="M275.63,26.45l-8.82,4.93-1.47-1.73,1.55-.87a4.48,4.48,0,0,1-3.83-1.57L265,26.15l.38.45a2.89,2.89,0,0,0,4.12.74l4.71-2.63Z"/><path class="cls-2" d="M259,28.21l-1.73-1.48,10.65-8.42,1.73,1.48Z"/><path class="cls-2" d="M248.73,18.68a3.93,3.93,0,0,1-2.7-2.74l-.77,1.25-2.15-.81,5.39-8.73c1.46-2.34,4.37-3.41,7.58-2.2,2.74,1,4.07,2.94,3.14,4.94l-2.11-.8c.23-1-.53-2-2-2.6a3.52,3.52,0,0,0-4.46,1.47l-.88,1.43a6.05,6.05,0,0,1,4.45-.09,4.05,4.05,0,0,1,2.09,6.31A6.31,6.31,0,0,1,248.73,18.68Zm.5-1.72a4.06,4.06,0,0,0,4.89-1.67,2.63,2.63,0,0,0-1.3-4.11,4.13,4.13,0,0,0-4.92,1.72A2.59,2.59,0,0,0,249.23,17Z"/><path class="cls-2" d="M244.11,6.71l-3.7,9.4-2.24-.42.65-1.65a4.46,4.46,0,0,1-3.95,1.21l.8-2,.56.11a2.9,2.9,0,0,0,3.67-2l2-5Z"/><path class="cls-2" d="M228.62,14.86a3.94,3.94,0,0,1-3.42-1.75l-.35,1.42-2.29-.1,2.37-9.82,2.3.1-.37,1.46a6.06,6.06,0,0,1,4.24-1.45A4,4,0,0,1,235,10.07,6.3,6.3,0,0,1,228.62,14.86Zm-.07-1.79A4.07,4.07,0,0,0,232.69,10a2.64,2.64,0,0,0-2.52-3.5A4.12,4.12,0,0,0,226,9.63,2.58,2.58,0,0,0,228.55,13.07Z"/><path class="cls-2" d="M221.09,14.58l-2.53.22-2.24-7.4-4,7.93-2.34.2L218.26.2,220.6,0l-2.75,5.07Z"/><path class="cls-2" d="M208.2,13.35l-8.06,1.47,0-1.76,8.07-1.47Z"/><path class="cls-2" d="M192.44,9c2.39-.64,4.54.14,4.74,2.05l-2.13.57c-.14-.89-1-1.36-2.32-1s-2,.91-1.81,1.73c.46,1.7,5.62-.17,6.45,2.92.46,1.69-1,3.28-3.44,4s-4.42-.13-4.67-2l2.09-.56c.14.93,1,1.34,2.29,1,1.1-.3,1.73-.95,1.54-1.66-.49-1.81-5.6,0-6.4-3C188.31,11.25,189.91,9.68,192.44,9Z"/><path class="cls-2" d="M182.64,22.8c-2.54.9-4.37.27-5.27-1.62l2.31-.83a2.05,2.05,0,0,0,2.7.71,3.78,3.78,0,0,0,2.37-4.44c-.34-2.19-1.67-3-3.4-2.4a3.14,3.14,0,0,0-2.22,2.45l-2.31.82a6.17,6.17,0,0,1,4.27-5c3-1.06,5.4.22,5.86,3.36A6.32,6.32,0,0,1,182.64,22.8Z"/><path class="cls-2" d="M171.91,27.21a4,4,0,0,1-3.84,0l.34,1.43-2.08,1-2.39-9.82,2.08-1,.35,1.47a6,6,0,0,1,3.1-3.23,4,4,0,0,1,5.93,3A6.29,6.29,0,0,1,171.91,27.21ZM171,25.65A4.07,4.07,0,0,0,173.28,21a2.63,2.63,0,0,0-3.84-2,4.12,4.12,0,0,0-2.23,4.71A2.59,2.59,0,0,0,171,25.65Z"/><path class="cls-2" d="M164.92,34.4l-2,1.1-4.19-12.91,2-1.1Z"/><path class="cls-2" d="M151.53,26.71c2.64-1.73,5.38-1.11,6.57,1.84a6.33,6.33,0,0,1-2.64,7.82c-2.62,1.72-5.23,1.08-6.34-1.64a8.63,8.63,0,0,1-.3-1l7-4.59c-.73-1.52-2.25-1.76-3.67-.83a3.33,3.33,0,0,0-1.63,2.72l-2.05,1.34A6.28,6.28,0,0,1,151.53,26.71Zm4.89,3.86-5.12,3.34c.66,1.52,2.16,1.7,3.59.78A3.67,3.67,0,0,0,156.42,30.57Z"/><path class="cls-2" d="M146.84,40.32l1,4.64-1.95,1.52-.32-5.18Zm2.83-2.21,1,4.64-2,1.52-.32-5.18Z"/><path class="cls-2" d="M130.15,44c1.73-1.77,4-2.2,5.12-.67l-1.54,1.59c-.58-.7-1.58-.65-2.52.31s-1.27,1.82-.66,2.42c1.26,1.23,4.74-3,7-.78,1.25,1.21.85,3.3-.94,5.15s-3.87,2.14-5,.62l1.5-1.54c.6.72,1.57.63,2.49-.31s1-1.7.47-2.22c-1.34-1.3-4.8,2.87-7,.73C127.75,48,128.33,45.82,130.15,44Z"/><path class="cls-2" d="M125.21,49.46l6.51,7.73L130.3,59l-1.15-1.36a4.45,4.45,0,0,1-.82,4L126.94,60l.37-.45a2.89,2.89,0,0,0,0-4.18l-3.47-4.13Z"/><path class="cls-2" d="M124.79,67.1c-1.44,2.27-3.27,2.91-5.15,2L121,67a2,2,0,0,0,2.56-1.11,3.76,3.76,0,0,0-.87-5c-1.62-1.52-3.18-1.35-4.16.2a3.15,3.15,0,0,0-.23,3.3l-1.31,2.08a6.18,6.18,0,0,1,.26-6.59c1.69-2.66,4.38-3.15,6.69-1A6.31,6.31,0,0,1,124.79,67.1Z"/><path class="cls-2" d="M116.87,71.36l-3.94,9.87-1.55-1,3.93-9.86Zm3.5,2.26-3.94,9.86-1.55-1,3.93-9.86Z"/><path class="cls-2" d="M119.85,91.24l-.44,2L116,91.52l.33-1.51Zm.65-2.94-.45,2-3.39-1.73.33-1.52Z"/><path class="cls-2" d="M115.06,93.5l-.29,2.26-9.59-3.17.29-2.26Zm2.58.55a1.76,1.76,0,0,1,1.09,1.87,1.1,1.1,0,0,1-1.46,1,1.73,1.73,0,0,1-1.08-1.85A1.1,1.1,0,0,1,117.64,94.05Z"/><path class="cls-2" d="M111.34,113.41c1.84.17,2.69-.81,2.53-2.46a3.16,3.16,0,0,0-3.05-3l-5.62-.58-.21-2.24,5.63.58c1.84.17,2.69-.81,2.53-2.46a3.16,3.16,0,0,0-3.05-3h.06l-5.68-.57-.21-2.27,10.06,1,.21,2.27-1.17-.12a5.2,5.2,0,0,1,1.63,3.38c.17,1.73-.37,3.12-1.62,3.76a5.31,5.31,0,0,1,2.34,4c.24,2.56-1,4.36-3.87,4.08l-5.93-.61-.21-2.24Z"/><path class="cls-2" d="M118.42,122.71a4,4,0,0,1-.53,3.81l1.46-.15.65,2.2-10.21,1c-2.74.25-5.36-1.4-6.35-4.69-.84-2.81-.13-5,2-5.5l.65,2.16c-.94.43-1.31,1.67-.86,3.18a3.53,3.53,0,0,0,3.88,2.65l1.68-.17a6,6,0,0,1-2.77-3.48,4,4,0,0,1,3.74-5.5A6.31,6.31,0,0,1,118.42,122.71Zm-1.67.65a4.07,4.07,0,0,0-4.3-2.88A2.63,2.63,0,0,0,110,124a4.1,4.1,0,0,0,4.35,2.86A2.58,2.58,0,0,0,116.75,123.36Z"/><path class="cls-2" d="M130.38,133.94l1,2-22.22.07-1-2Z"/><path class="cls-2" d="M123.47,149.83,120.18,145l-3,.21-1.35-1.95,14.54-1,1.49,2.17L123,153.66l-1.36-2Zm5.36-5.42-6.8.5,2.59,3.77Z"/><path class="cls-2" d="M136,149.39l5.7,5.85-1.37.89-4.11-4.22L133,154l3.21,3.28-1.36.88-3.21-3.28L126.88,158l-1.59-1.62Z"/><path class="cls-2" d="M141.05,157.8l1.74,1.46-7.85,6.36-1.75-1.46Zm1.86-1.87a1.75,1.75,0,0,1,2.16.09,1.09,1.09,0,0,1,.05,1.76,1.72,1.72,0,0,1-2.14-.08A1.09,1.09,0,0,1,142.91,155.93Z"/><path class="cls-2" d="M155,172.68c1.25-1.37,1-2.64-.43-3.51a3.17,3.17,0,0,0-4.27.6l-3.85,4.13-1.91-1.18,3.85-4.14c1.24-1.37,1-2.64-.44-3.51a3.16,3.16,0,0,0-4.26.6l0,0-3.88,4.18-1.93-1.2,6.87-7.41,1.93,1.2-.79.86a5.2,5.2,0,0,1,3.68.74c1.47.91,2.26,2.18,2,3.56a5.37,5.37,0,0,1,4.59.54c2.19,1.35,2.85,3.48.93,5.55L153.09,178l-1.92-1.18Z"/><path class="cls-2" d="M166.66,173a3.91,3.91,0,0,1,2.58,2.85l.82-1.22,2.11.91L166.4,184c-1.56,2.27-4.51,3.22-7.66,1.87-2.7-1.16-3.94-3.12-2.93-5.08l2.07.89c-.27,1,.44,2.07,1.89,2.69a3.52,3.52,0,0,0,4.52-1.28l1-1.39a6,6,0,0,1-4.45-.11,4,4,0,0,1-1.82-6.39A6.3,6.3,0,0,1,166.66,173Zm-.58,1.69a4.06,4.06,0,0,0-5,1.46,2.63,2.63,0,0,0,1.12,4.16,4.12,4.12,0,0,0,5-1.51A2.59,2.59,0,0,0,166.08,174.69Z"/><path class="cls-2" d="M170.64,185.53a1.1,1.1,0,0,1-.69-1.64,1.74,1.74,0,0,1,2.05-.67,1.09,1.09,0,0,1,.68,1.63A1.75,1.75,0,0,1,170.64,185.53Z"/><path class="cls-2" d="M181.67,178.6l-5.77,10.62c-1,1.81-2.48,2.12-4.35,1.53l-1.12-.35.84-1.55.74.24c.91.28,1.37.11,1.72-.56l5.77-10.61Zm-1.17-3.12a1.73,1.73,0,0,1,2-.74,1.09,1.09,0,0,1,.73,1.6,1.74,1.74,0,0,1-2,.75A1.1,1.1,0,0,1,180.5,175.48Z"/><path class="cls-2" d="M190.45,180.8c2.81.71,4.13,3.12,2.8,5.94a6.36,6.36,0,0,1-7.24,3.5,4.25,4.25,0,0,1-3-2.42l-2.67,5.68-2.21-.56,6.35-13.49,2.21.56-.63,1.34A6.12,6.12,0,0,1,190.45,180.8Zm-1.25,1.52a4.11,4.11,0,0,0-4.68,2.25,2.6,2.6,0,0,0,1.77,3.9,4.16,4.16,0,0,0,4.72-2.29A2.57,2.57,0,0,0,189.2,182.32Z"/><path class="cls-2" d="M201.94,183.2a3.9,3.9,0,0,1,3.16,2.18l.53-1.36,2.26.4L204.2,194c-1,2.56-3.65,4.15-7,3.55-2.89-.51-4.55-2.14-4-4.28l2.22.4c0,1,.9,1.91,2.45,2.19a3.51,3.51,0,0,0,4.11-2.27l.61-1.57a6,6,0,0,1-4.36.91,4.05,4.05,0,0,1-3.23-5.82A6.29,6.29,0,0,1,201.94,183.2Zm-.17,1.77a4.09,4.09,0,0,0-4.51,2.55,2.64,2.64,0,0,0,2.05,3.8,4.11,4.11,0,0,0,4.51-2.6A2.59,2.59,0,0,0,201.77,185Z"/><path class="cls-2" d="M211.43,180.34l2,.26-1.42,3.54-1.54-.2Zm3,.38,2,.27L215,184.52l-1.54-.2Z"/><path class="cls-2" d="M227.6,186.17A3.94,3.94,0,0,1,231,188l.37-1.42,2.29.14-2.53,9.78-2.29-.14.39-1.45a6,6,0,0,1-4.26,1.38,4,4,0,0,1-3.84-5.41A6.32,6.32,0,0,1,227.6,186.17Zm0,1.79a4.07,4.07,0,0,0-4.19,3,2.64,2.64,0,0,0,2.47,3.54,4.1,4.1,0,0,0,4.18-3.1A2.58,2.58,0,0,0,227.64,188Z"/><path class="cls-2" d="M237.41,183.33l2.27.06-2.94,13.25-2.27-.06Z"/><path class="cls-2" d="M242,188.47h-1.3l.32-1.68h1.32l.48-2.46h2.29l-.48,2.47h2.66l-.32,1.67h-2.68L243.16,194c-.14.74.12,1,1.08,1h1.39l-.34,1.71H243.5c-2,0-3-.74-2.64-2.76Z"/><path class="cls-2" d="M249.35,191.34l10.61-.41-.29,1.83-10.61.41Zm.65-4.12,10.61-.4-.29,1.83-10.61.4Z"/><path class="cls-2" d="M263.92,181.64l2.05-.15-.69,3.75-1.55.11Zm3-.22,2.05-.15-.69,3.75-1.55.11Z"/><path class="cls-2" d="M277.92,192.22l-5.78.59-1.23,2.7-2.36.25,6.1-13.23,2.62-.27,3.79,12.2-2.39.25Zm-2.2-7.3-2.81,6.21,4.54-.48Z"/><path class="cls-2" d="M291.17,187.47c.08-1.85-.94-2.65-2.58-2.41a3.16,3.16,0,0,0-2.89,3.19v-.05l-.29,5.7-2.26.32.52-10.1,2.25-.32-.06,1.17a5.38,5.38,0,0,1,3.32-1.8c2.55-.36,4.39.85,4.25,3.67l-.32,5.95-2.23.32Z"/><path class="cls-2" d="M300.47,181.32a4.37,4.37,0,0,1,3.72.9l.07-4.88,2.26-.4-.21,13.57-2.26.41,0-1.53a5.84,5.84,0,0,1-3.77,2.37,4.05,4.05,0,0,1-5-4.35A6.29,6.29,0,0,1,300.47,181.32Zm.44,1.73a4.09,4.09,0,0,0-3.35,3.95,2.64,2.64,0,0,0,3.23,2.86,4.12,4.12,0,0,0,3.34-4A2.59,2.59,0,0,0,300.91,183.05Z"/><path class="cls-2" d="M309.22,189.93l-.14-10.11,2.23-.46,0,1.78a4.46,4.46,0,0,1,3.21-2.62l0,2.16-.56.12a2.9,2.9,0,0,0-2.62,3.27l.07,5.39Z"/><path class="cls-2" d="M321.32,187.46c-3.07.72-5.44-.8-5.55-4a6.33,6.33,0,0,1,5.14-6.45c3-.72,5.29.77,5.4,3.7a7.1,7.1,0,0,1,0,1l-8.18,1.92c.17,1.68,1.51,2.42,3.16,2a3.34,3.34,0,0,0,2.46-2l2.39-.56A6.31,6.31,0,0,1,321.32,187.46Zm-3.28-5.3,5.94-1.39c-.1-1.66-1.45-2.34-3.1-2A3.65,3.65,0,0,0,318,182.16Z"/><path class="cls-2" d="M332.64,174.14a4,4,0,0,1,3.77.73l-.07-1.47,2.23-.54.48,10.09-2.23.55-.06-1.51a6,6,0,0,1-3.66,2.59,4,4,0,0,1-5.26-4A6.3,6.3,0,0,1,332.64,174.14Zm.56,1.7a4.07,4.07,0,0,0-3.09,4.15,2.62,2.62,0,0,0,3.4,2.65,4.12,4.12,0,0,0,3.08-4.2A2.59,2.59,0,0,0,333.2,175.84Z"/><path class="cls-2" d="M347.35,168.09l7.94-1.9.06,1.63-5.72,1.37.16,3.87,4.46-1.07.06,1.61-4.46,1.07.23,5.62-2.21.53Z"/><path class="cls-2" d="M361.85,167.15a4,4,0,0,1,3.77.76l-.06-1.47,2.23-.52.38,10.1-2.23.52-.05-1.51a6,6,0,0,1-3.68,2.55A4,4,0,0,1,357,173.5,6.3,6.3,0,0,1,361.85,167.15Zm.55,1.7a4.08,4.08,0,0,0-3.14,4.12,2.63,2.63,0,0,0,3.38,2.68,4.11,4.11,0,0,0,3.12-4.17A2.59,2.59,0,0,0,362.4,168.85Z"/><path class="cls-2" d="M370.68,161.77l2.21-.52.46,13.57-2.21.51Z"/><path class="cls-2" d="M382.87,164.17l-4.64,7.8,4.86-1.11.05,1.71-7.43,1.7,0-1.71,4.67-7.81-4.89,1.12-.06-1.7,7.43-1.7Z"/><path class="cls-2" d="M384.85,159.31a1.75,1.75,0,0,1,1.38-1.66,1.09,1.09,0,0,1,1.44,1,1.72,1.72,0,0,1-1.36,1.65A1.09,1.09,0,0,1,384.85,159.31Zm.37,2.61,2.22-.5.3,10.1-2.22.5Z"/><path class="cls-2" d="M402.33,157.93c2.83-.62,5.1.94,5.17,4.06a6.37,6.37,0,0,1-4.91,6.38,4.26,4.26,0,0,1-3.79-.81l.15,6.27-2.22.49-.36-14.9,2.22-.49,0,1.48A6.14,6.14,0,0,1,402.33,157.93Zm-.43,1.92a4.13,4.13,0,0,0-3.18,4.12,2.6,2.6,0,0,0,3.33,2.69,4.17,4.17,0,0,0,3.19-4.17A2.57,2.57,0,0,0,401.9,159.85Z"/><path class="cls-2" d="M409.35,153.88a1.74,1.74,0,0,1,1.4-1.64,1.08,1.08,0,0,1,1.42,1,1.75,1.75,0,0,1-1.38,1.65A1.1,1.1,0,0,1,409.35,153.88Zm.34,2.62,2.22-.48.2,10.1-2.22.48Z"/><path class="cls-2" d="M419.46,154.25c2.64-.55,4.37.32,5,2.32l-2.4.5a2.06,2.06,0,0,0-2.59-1,3.75,3.75,0,0,0-2.93,4.07c0,2.22,1.24,3.22,3,2.84a3.15,3.15,0,0,0,2.53-2.13l2.4-.5a6.18,6.18,0,0,1-4.91,4.39c-3.09.65-5.31-.95-5.35-4.12A6.32,6.32,0,0,1,419.46,154.25Z"/><path class="cls-2" d="M427.14,154.56l-1.28.25v-1.7l1.29-.26v-2.51l2.25-.45v2.51l2.61-.52v1.71l-2.62.52v5.59c0,.76.32,1,1.26.82l1.37-.27V162l-1.76.35c-1.92.38-3.1-.14-3.12-2.19Z"/><path class="cls-2" d="M443.9,159.8l-2.24.4V159a5.21,5.21,0,0,1-3.21,1.91c-2.53.45-4.44-.69-4.39-3.51l.09-5.94,2.22-.4-.09,5.63c0,1.85,1,2.61,2.66,2.32a3.17,3.17,0,0,0,2.78-3.16l.08-5.76,2.24-.4Z"/><path class="cls-2" d="M446.85,159.3l.3-10.1,2.25-.37,0,1.78a4.46,4.46,0,0,1,3.31-2.48l-.07,2.16-.57.1a2.89,2.89,0,0,0-2.76,3.15l-.17,5.39Z"/><path class="cls-2" d="M459.11,157.5c-3.12.47-5.35-1.23-5.2-4.4a6.33,6.33,0,0,1,5.65-6c3.09-.47,5.2,1.2,5.08,4.13a7.63,7.63,0,0,1-.13,1l-8.31,1.25c0,1.69,1.31,2.54,3,2.28A3.29,3.29,0,0,0,461.8,154l2.43-.37A6.31,6.31,0,0,1,459.11,157.5ZM456.28,152l6-.91c0-1.66-1.25-2.45-2.93-2.2A3.66,3.66,0,0,0,456.28,152Z"/><path class="cls-2" d="M466.66,141.74l2-.28-.45,3.79-1.54.21Zm3-.41,2-.28-.44,3.79-1.55.21Z"/><path class="cls-2" d="M485.44,136.7l2.24-.26-7,21.11-2.22.26Z"/></g><g class="cls-1"><path class="cls-2" d="M508.59,147.85l-19.1-22.7h14.4l19,22.7-27,22.71h-14.4Z"/></g></g></g></svg>